<?xml version="1.0" encoding="UTF-8"?>
<svg xmlns="http://www.w3.org/2000/svg" xmlns:xlink="http://www.w3.org/1999/xlink"   viewBox="0 0 192 192" version="1.1">
<defs>
<g>
<symbol overflow="visible" >
<path style="stroke:none;" fill="#000000" d=""/>
</symbol>
<symbol overflow="visible" >
<path style="stroke:none;" fill="#000000" d="M 0.09375 0 L 0.453125 0 C 0.53125 0 0.578125 -0.015625 0.625 -0.0625 C 0.671875 -0.109375 0.6875 -0.171875 0.6875 -0.234375 C 0.6875 -0.328125 0.640625 -0.390625 0.546875 -0.421875 C 0.625 -0.46875 0.65625 -0.515625 0.65625 -0.609375 C 0.65625 -0.65625 0.640625 -0.71875 0.59375 -0.75 C 0.546875 -0.796875 0.5 -0.8125 0.421875 -0.8125 L 0.09375 -0.8125 Z M 0.1875 -0.453125 L 0.1875 -0.71875 L 0.390625 -0.71875 C 0.453125 -0.71875 0.484375 -0.703125 0.515625 -0.6875 C 0.53125 -0.671875 0.546875 -0.640625 0.546875 -0.59375 C 0.546875 -0.546875 0.53125 -0.515625 0.515625 -0.484375 C 0.484375 -0.46875 0.453125 -0.453125 0.390625 -0.453125 Z M 0.1875 -0.09375 L 0.1875 -0.375 L 0.4375 -0.375 C 0.53125 -0.375 0.59375 -0.3125 0.59375 -0.234375 C 0.59375 -0.140625 0.53125 -0.09375 0.4375 -0.09375 Z M 0.1875 -0.09375 "/>
</symbol>
<symbol overflow="visible" >
<path style="stroke:none;" fill="#000000" d="M 0.5625 -0.265625 C 0.5625 -0.34375 0.5625 -0.40625 0.546875 -0.4375 C 0.515625 -0.546875 0.421875 -0.59375 0.3125 -0.59375 C 0.15625 -0.59375 0.046875 -0.46875 0.046875 -0.28125 C 0.046875 -0.09375 0.140625 0.03125 0.3125 0.03125 C 0.4375 0.03125 0.53125 -0.046875 0.5625 -0.171875 L 0.46875 -0.171875 C 0.4375 -0.09375 0.390625 -0.0625 0.3125 -0.0625 C 0.25 -0.0625 0.203125 -0.09375 0.171875 -0.140625 C 0.15625 -0.171875 0.140625 -0.203125 0.140625 -0.265625 Z M 0.140625 -0.328125 C 0.15625 -0.4375 0.21875 -0.515625 0.3125 -0.515625 C 0.40625 -0.515625 0.46875 -0.4375 0.46875 -0.328125 Z M 0.140625 -0.328125 "/>
</symbol>
<symbol overflow="visible" >
<path style="stroke:none;" fill="#000000" d="M 0.515625 0 L 0.75 -0.671875 L 0.75 0 L 0.84375 0 L 0.84375 -0.8125 L 0.703125 -0.8125 L 0.46875 -0.109375 L 0.21875 -0.8125 L 0.078125 -0.8125 L 0.078125 0 L 0.1875 0 L 0.1875 -0.671875 L 0.40625 0 Z M 0.515625 0 "/>
</symbol>
<symbol overflow="visible" >
<path style="stroke:none;" fill="#000000" d="M 0.171875 -0.578125 L 0.078125 -0.578125 L 0.078125 0 L 0.171875 0 Z M 0.171875 -0.8125 L 0.078125 -0.8125 L 0.078125 -0.6875 L 0.171875 -0.6875 Z M 0.171875 -0.8125 "/>
</symbol>
<symbol overflow="visible" >
<path style="stroke:none;" fill="#000000" d="M 0.078125 -0.578125 L 0.078125 0 L 0.171875 0 L 0.171875 -0.328125 C 0.171875 -0.4375 0.234375 -0.515625 0.328125 -0.515625 C 0.40625 -0.515625 0.453125 -0.46875 0.453125 -0.40625 L 0.453125 0 L 0.546875 0 L 0.546875 -0.4375 C 0.546875 -0.53125 0.46875 -0.59375 0.359375 -0.59375 C 0.265625 -0.59375 0.21875 -0.5625 0.15625 -0.484375 L 0.15625 -0.578125 Z M 0.078125 -0.578125 "/>
</symbol>
<symbol overflow="visible" >
<path style="stroke:none;" fill="#000000" d="M 0.296875 -0.59375 C 0.140625 -0.59375 0.046875 -0.484375 0.046875 -0.28125 C 0.046875 -0.09375 0.140625 0.03125 0.296875 0.03125 C 0.46875 0.03125 0.5625 -0.09375 0.5625 -0.28125 C 0.5625 -0.484375 0.46875 -0.59375 0.296875 -0.59375 Z M 0.296875 -0.515625 C 0.40625 -0.515625 0.46875 -0.421875 0.46875 -0.28125 C 0.46875 -0.140625 0.40625 -0.0625 0.296875 -0.0625 C 0.203125 -0.0625 0.140625 -0.140625 0.140625 -0.28125 C 0.140625 -0.421875 0.203125 -0.515625 0.296875 -0.515625 Z M 0.296875 -0.515625 "/>
</symbol>
<symbol overflow="visible" >
<path style="stroke:none;" fill="#000000" d="M 0.53125 0 L 0.53125 -0.578125 L 0.4375 -0.578125 L 0.4375 -0.25 C 0.4375 -0.140625 0.375 -0.0625 0.28125 -0.0625 C 0.203125 -0.0625 0.171875 -0.09375 0.171875 -0.171875 L 0.171875 -0.578125 L 0.078125 -0.578125 L 0.078125 -0.140625 C 0.078125 -0.03125 0.140625 0.03125 0.25 0.03125 C 0.34375 0.03125 0.390625 0 0.453125 -0.078125 L 0.453125 0 Z M 0.53125 0 "/>
</symbol>
<symbol overflow="visible" >
<path style="stroke:none;" fill="#000000" d="M 0.28125 -0.578125 L 0.1875 -0.578125 L 0.1875 -0.734375 L 0.09375 -0.734375 L 0.09375 -0.578125 L 0.015625 -0.578125 L 0.015625 -0.5 L 0.09375 -0.5 L 0.09375 -0.0625 C 0.09375 0 0.140625 0.03125 0.203125 0.03125 C 0.234375 0.03125 0.25 0.015625 0.28125 0.015625 L 0.28125 -0.0625 C 0.265625 -0.0625 0.25 -0.0625 0.234375 -0.0625 C 0.203125 -0.0625 0.1875 -0.0625 0.1875 -0.109375 L 0.1875 -0.5 L 0.28125 -0.5 Z M 0.28125 -0.578125 "/>
</symbol>
<symbol overflow="visible" >
<path style="stroke:none;" fill="#000000" d="M 0.546875 0.234375 L 0.546875 -0.578125 L 0.46875 -0.578125 L 0.46875 -0.5 C 0.421875 -0.5625 0.359375 -0.59375 0.28125 -0.59375 C 0.125 -0.59375 0.03125 -0.46875 0.03125 -0.28125 C 0.03125 -0.09375 0.125 0.03125 0.28125 0.03125 C 0.359375 0.03125 0.40625 0 0.453125 -0.0625 L 0.453125 0.234375 Z M 0.296875 -0.515625 C 0.390625 -0.515625 0.453125 -0.421875 0.453125 -0.28125 C 0.453125 -0.15625 0.390625 -0.0625 0.296875 -0.0625 C 0.1875 -0.0625 0.125 -0.15625 0.125 -0.28125 C 0.125 -0.421875 0.1875 -0.515625 0.296875 -0.515625 Z M 0.296875 -0.515625 "/>
</symbol>
</g>
</defs>
<g>
<path style=" stroke:none;fill-rule:nonzero;fill-opacity:1;" fill="#d51856" d="M 64.425781 8.699219 C 60 10.347656 55.652344 14.175781 53.925781 17.847656 C 53.101562 19.574219 53.027344 20.324219 53.027344 22.949219 C 53.027344 26.472656 53.550781 28.425781 55.652344 32.472656 C 60.378906 41.621094 73.652344 54.371094 90.601562 65.847656 C 95.25 68.996094 96 69.671875 93.375 68.171875 C 83.773438 62.996094 66.75 56.398438 56.476562 53.921875 C 48.828125 52.121094 45.902344 51.671875 38.625 51.671875 C 32.398438 51.671875 31.574219 51.746094 28.425781 52.570312 C 22.949219 53.996094 19.652344 55.871094 15.902344 59.546875 C 13.128906 62.320312 12.527344 63.148438 11.027344 66.296875 C 9.601562 69.445312 7.503906 75.746094 7.503906 77.246094 C 7.503906 77.472656 8.480469 76.644531 9.605469 75.445312 C 17.332031 67.496094 28.128906 63.59375 44.554688 62.769531 C 57.679688 62.09375 78.53125 65.246094 95.929688 70.496094 C 97.804688 71.097656 99.378906 71.472656 99.453125 71.472656 C 99.453125 71.472656 97.277344 69.746094 94.652344 67.722656 C 86.328125 61.496094 81.003906 56.847656 74.175781 49.949219 C 65.777344 41.625 62.175781 36.75 60.675781 31.5 C 59.25 26.550781 60.824219 22.949219 65.550781 20.625 C 77.550781 14.625 88.125 26.699219 95.476562 54.824219 C 97.050781 60.898438 96.976562 58.949219 95.25 51.074219 C 90.375 28.199219 82.949219 13.347656 74.476562 9.148438 C 71.550781 7.722656 67.5 7.574219 64.425781 8.699219 Z M 64.425781 8.699219 "/>
<path style=" stroke:none;fill-rule:nonzero;fill-opacity:1;" fill="#d51856" d="M 110.101562 19.125 C 107.777344 19.875 106.726562 20.625 105 22.425781 C 101.625 26.027344 99.601562 31.875 98.476562 41.324219 C 98.027344 45.074219 97.953125 59.398438 98.402344 63.824219 C 98.628906 66.523438 98.703125 66.523438 98.925781 61.050781 C 99.601562 47.625 101.027344 39.75 104.101562 33.527344 C 105.902344 29.777344 108.152344 27.527344 110.851562 26.777344 C 113.027344 26.175781 114.453125 26.328125 117.226562 27.300781 C 128.625 31.574219 123.828125 46.125 104.027344 67.425781 C 101.027344 70.652344 100.578125 71.25 101.777344 70.574219 C 115.652344 62.324219 126.976562 57.375 138.078125 54.597656 C 156.601562 50.023438 170.628906 52.949219 179.851562 63.449219 C 180.976562 64.800781 182.476562 66.675781 183.152344 67.800781 C 183.828125 68.925781 184.425781 69.824219 184.503906 69.824219 C 184.578125 69.824219 184.277344 68.699219 183.902344 67.273438 C 179.175781 50.546875 168.601562 42.523438 153.378906 44.097656 C 146.328125 44.847656 139.804688 46.949219 131.027344 51.148438 C 123.675781 54.75 114.226562 60.523438 107.777344 65.398438 C 107.101562 65.921875 109.050781 63.824219 112.128906 60.671875 C 118.128906 54.671875 120.828125 51.445312 123.902344 46.871094 C 127.652344 41.246094 129.378906 36.597656 129.378906 32.320312 C 129.378906 27.746094 127.054688 24.144531 122.480469 21.59375 C 118.054688 19.195312 113.03125 18.144531 110.105469 19.117188 Z M 110.101562 19.125 "/>
<path style=" stroke:none;fill-rule:nonzero;fill-opacity:1;" fill="#d51856" d="M 96.824219 60.898438 C 96.824219 61.347656 96.898438 61.574219 96.972656 61.347656 C 97.046875 61.121094 97.046875 60.746094 96.972656 60.449219 C 96.898438 60.222656 96.824219 60.375 96.824219 60.898438 Z M 96.824219 60.898438 "/>
<path style=" stroke:none;fill-rule:nonzero;fill-opacity:1;" fill="#d51856" d="M 25.125 91.125 L 25.125 110.324219 L 93.078125 110.175781 L 93.226562 71.925781 L 25.125 71.925781 Z M 25.125 91.125 "/>
<path style=" stroke:none;fill-rule:nonzero;fill-opacity:1;" fill="#d51856" d="M 102 91.125 L 102 110.324219 L 169.796875 110.324219 L 169.796875 71.925781 L 102 71.925781 Z M 102 91.125 "/>
<path style=" stroke:none;fill-rule:nonzero;fill-opacity:1;" fill="#d51856" d="M 34.125 151.5 L 34.125 184.050781 L 93.300781 184.050781 L 93.226562 151.574219 L 93.152344 119.175781 L 63.675781 119.101562 L 34.125 119.027344 L 34.125 151.503906 Z M 34.125 151.5 "/>
<path style=" stroke:none;fill-rule:nonzero;fill-opacity:1;" fill="#d51856" d="M 102 151.5 L 102 184.050781 L 161.101562 184.050781 L 161.101562 118.949219 L 102 118.949219 Z M 102 151.5 "/>
<g style="fill-opacity:1;" fill="#1e1e1e">
  <use xlink:href="#glyph0-1" x="5.59375" y="11.816406"/>
</g>
<g style="fill-opacity:1;" fill="#1e1e1e">
  <use xlink:href="#glyph0-2" x="6.339844" y="11.816406"/>
</g>
<g style="fill-opacity:1;" fill="#1e1e1e">
  <use xlink:href="#glyph0-3" x="7.269531" y="11.816406"/>
</g>
<g style="fill-opacity:1;" fill="#1e1e1e">
  <use xlink:href="#glyph0-4" x="8.199219" y="11.816406"/>
</g>
<g style="fill-opacity:1;" fill="#1e1e1e">
  <use xlink:href="#glyph0-5" x="8.449219" y="11.816406"/>
</g>
<g style="fill-opacity:1;" fill="#1e1e1e">
  <use xlink:href="#glyph0-2" x="9.070312" y="11.816406"/>
</g>
<g style="fill-opacity:1;" fill="#1e1e1e">
  <use xlink:href="#glyph0-1" x="10" y="11.816406"/>
</g>
<g style="fill-opacity:1;" fill="#1e1e1e">
  <use xlink:href="#glyph0-6" x="10.46875" y="11.816406"/>
</g>
<g style="fill-opacity:1;" fill="#1e1e1e">
  <use xlink:href="#glyph0-7" x="11.054688" y="11.816406"/>
</g>
<g style="fill-opacity:1;" fill="#1e1e1e">
  <use xlink:href="#glyph0-8" x="11.675781" y="11.816406"/>
</g>
<g style="fill-opacity:1;" fill="#1e1e1e">
  <use xlink:href="#glyph0-4" x="11.988281" y="11.816406"/>
</g>
<g style="fill-opacity:1;" fill="#1e1e1e">
  <use xlink:href="#glyph0-9" x="12.234375" y="11.816406"/>
</g>
<g style="fill-opacity:1;" fill="#1e1e1e">
  <use xlink:href="#glyph0-7" x="12.769531" y="11.816406"/>
</g>
<g style="fill-opacity:1;" fill="#1e1e1e">
  <use xlink:href="#glyph0-2" x="13.3125" y="11.816406"/>
</g>
<path style=" stroke:none;fill-rule:nonzero;fill-opacity:1;" fill="#d41b58" d="M 9.285156 9.183594 C 9.289062 9.175781 9.292969 9.171875 9.296875 9.164062 C 9.308594 9.140625 9.320312 9.117188 9.332031 9.09375 C 9.355469 9.035156 9.355469 8.96875 9.332031 8.910156 C 9.320312 8.886719 9.308594 8.859375 9.292969 8.835938 C 9.273438 8.804688 9.25 8.777344 9.222656 8.75 C 9.191406 8.714844 9.15625 8.683594 9.121094 8.648438 L 9.125 8.652344 C 9.121094 8.648438 9.117188 8.644531 9.113281 8.644531 L 9.105469 8.644531 C 9.105469 8.644531 9.105469 8.644531 9.101562 8.644531 L 9.097656 8.648438 L 9.089844 8.652344 L 8.539062 9.0625 L 8.542969 9.058594 C 8.542969 9.058594 8.539062 9.0625 8.539062 9.0625 L 8.535156 9.0625 C 8.53125 9.0625 8.527344 9.058594 8.527344 9.054688 L 8.304688 8.757812 C 8.300781 8.753906 8.300781 8.75 8.296875 8.746094 C 8.300781 8.738281 8.308594 8.730469 8.316406 8.726562 L 8.730469 8.417969 L 8.910156 8.285156 C 8.917969 8.28125 8.925781 8.273438 8.929688 8.265625 C 8.921875 8.265625 8.917969 8.265625 8.910156 8.265625 C 8.871094 8.273438 8.832031 8.28125 8.792969 8.285156 L 8.792969 8.289062 C 8.730469 8.296875 8.664062 8.296875 8.601562 8.289062 C 8.566406 8.285156 8.535156 8.277344 8.507812 8.265625 C 8.492188 8.257812 8.476562 8.25 8.460938 8.238281 C 8.421875 8.203125 8.410156 8.144531 8.433594 8.097656 C 8.441406 8.082031 8.449219 8.070312 8.460938 8.054688 C 8.472656 8.042969 8.484375 8.027344 8.5 8.015625 C 8.574219 7.957031 8.664062 7.917969 8.761719 7.90625 C 8.84375 7.898438 8.929688 7.910156 9.007812 7.9375 C 9.023438 7.941406 9.042969 7.949219 9.058594 7.957031 C 9.0625 7.957031 9.066406 7.960938 9.074219 7.960938 C 9.074219 7.957031 9.074219 7.953125 9.078125 7.949219 C 9.078125 7.9375 9.078125 7.929688 9.074219 7.917969 C 9.066406 7.824219 9.078125 7.734375 9.113281 7.648438 C 9.152344 7.558594 9.214844 7.480469 9.296875 7.425781 C 9.320312 7.40625 9.351562 7.394531 9.382812 7.386719 C 9.441406 7.371094 9.5 7.402344 9.519531 7.460938 C 9.535156 7.496094 9.539062 7.53125 9.535156 7.566406 C 9.527344 7.640625 9.503906 7.714844 9.472656 7.78125 C 9.457031 7.816406 9.4375 7.855469 9.417969 7.890625 C 9.414062 7.894531 9.410156 7.902344 9.40625 7.910156 C 9.414062 7.910156 9.417969 7.90625 9.421875 7.902344 L 9.617188 7.757812 L 9.972656 7.492188 L 9.996094 7.472656 C 10.007812 7.476562 10.011719 7.484375 10.015625 7.492188 C 10.082031 7.582031 10.152344 7.675781 10.21875 7.765625 C 10.226562 7.773438 10.230469 7.78125 10.238281 7.789062 L 10.246094 7.789062 C 10.238281 7.796875 10.230469 7.804688 10.222656 7.808594 L 9.84375 8.089844 L 9.84375 8.09375 C 9.835938 8.097656 9.828125 8.105469 9.824219 8.113281 C 9.839844 8.144531 9.855469 8.175781 9.867188 8.210938 C 9.875 8.246094 9.882812 8.28125 9.894531 8.320312 C 9.9375 8.316406 9.976562 8.308594 10.019531 8.304688 C 10.0625 8.300781 10.101562 8.296875 10.144531 8.289062 C 10.160156 8.199219 10.167969 8.113281 10.183594 8.019531 L 10.179688 8.019531 C 10.183594 8.027344 10.1875 8.035156 10.1875 8.042969 C 10.199219 8.117188 10.207031 8.191406 10.21875 8.269531 C 10.21875 8.273438 10.21875 8.277344 10.21875 8.28125 C 10.21875 8.292969 10.222656 8.292969 10.234375 8.296875 C 10.246094 8.296875 10.257812 8.300781 10.273438 8.300781 L 10.449219 8.324219 C 10.453125 8.324219 10.460938 8.324219 10.464844 8.332031 C 10.425781 8.335938 10.386719 8.34375 10.34375 8.347656 C 10.304688 8.351562 10.261719 8.355469 10.222656 8.363281 C 10.214844 8.410156 10.210938 8.453125 10.203125 8.496094 C 10.195312 8.539062 10.191406 8.585938 10.183594 8.628906 C 10.167969 8.542969 10.15625 8.453125 10.144531 8.363281 C 10.136719 8.363281 10.128906 8.359375 10.121094 8.359375 C 10.046875 8.351562 9.972656 8.339844 9.894531 8.332031 L 9.890625 8.324219 C 9.890625 8.332031 9.890625 8.335938 9.890625 8.339844 C 9.894531 8.382812 9.894531 8.425781 9.898438 8.464844 L 9.898438 8.46875 C 9.902344 8.519531 9.914062 8.570312 9.933594 8.621094 C 9.941406 8.640625 9.953125 8.660156 9.964844 8.679688 C 10 8.730469 10.058594 8.757812 10.121094 8.746094 C 10.164062 8.738281 10.207031 8.722656 10.246094 8.703125 L 10.269531 8.691406 C 10.292969 8.71875 10.3125 8.746094 10.328125 8.78125 C 10.324219 8.785156 10.320312 8.785156 10.316406 8.789062 C 10.257812 8.828125 10.191406 8.847656 10.121094 8.855469 C 10.03125 8.867188 9.941406 8.832031 9.886719 8.757812 C 9.855469 8.714844 9.828125 8.667969 9.816406 8.617188 C 9.800781 8.570312 9.792969 8.519531 9.789062 8.46875 C 9.785156 8.425781 9.785156 8.382812 9.78125 8.34375 L 9.777344 8.34375 C 9.777344 8.300781 9.765625 8.253906 9.75 8.214844 C 9.746094 8.203125 9.738281 8.191406 9.734375 8.179688 C 9.722656 8.179688 9.71875 8.1875 9.710938 8.191406 L 9.46875 8.371094 L 9.226562 8.554688 C 9.21875 8.558594 9.214844 8.566406 9.207031 8.570312 C 9.210938 8.578125 9.21875 8.582031 9.222656 8.585938 C 9.246094 8.605469 9.265625 8.628906 9.289062 8.648438 L 9.28125 8.652344 C 9.324219 8.691406 9.359375 8.734375 9.390625 8.785156 C 9.417969 8.824219 9.433594 8.867188 9.449219 8.910156 C 9.464844 8.976562 9.464844 9.046875 9.441406 9.113281 C 9.425781 9.15625 9.40625 9.195312 9.382812 9.234375 C 9.378906 9.238281 9.378906 9.242188 9.375 9.246094 C 9.34375 9.226562 9.316406 9.203125 9.289062 9.183594 Z M 8.558594 8.910156 C 8.5625 8.90625 8.566406 8.90625 8.574219 8.902344 C 8.589844 8.890625 8.605469 8.878906 8.617188 8.867188 L 9.011719 8.574219 C 9.019531 8.570312 9.027344 8.566406 9.03125 8.554688 L 9.027344 8.546875 C 9.015625 8.515625 9.007812 8.488281 9.003906 8.457031 C 9.003906 8.429688 9.003906 8.402344 9.007812 8.378906 C 9.007812 8.371094 9.011719 8.363281 9.007812 8.355469 C 9 8.359375 8.992188 8.363281 8.984375 8.367188 L 8.691406 8.585938 L 8.46875 8.753906 C 8.460938 8.757812 8.453125 8.761719 8.453125 8.769531 C 8.46875 8.796875 8.542969 8.894531 8.558594 8.910156 Z M 9.984375 7.628906 C 9.976562 7.632812 9.96875 7.636719 9.960938 7.644531 L 9.671875 7.859375 L 9.535156 7.960938 C 9.53125 7.964844 9.523438 7.964844 9.527344 7.976562 C 9.550781 7.976562 9.578125 7.976562 9.601562 7.980469 L 9.601562 7.976562 C 9.625 7.980469 9.652344 7.984375 9.675781 7.996094 C 9.699219 8.003906 9.722656 8.015625 9.746094 8.027344 C 9.75 8.027344 9.753906 8.023438 9.757812 8.019531 C 9.867188 7.941406 9.972656 7.859375 10.078125 7.78125 C 10.082031 7.777344 10.085938 7.773438 10.089844 7.769531 C 10.054688 7.722656 10.019531 7.675781 9.984375 7.628906 Z M 8.53125 8.152344 L 8.535156 8.152344 C 8.539062 8.160156 8.546875 8.164062 8.554688 8.164062 C 8.566406 8.171875 8.578125 8.175781 8.589844 8.175781 C 8.617188 8.183594 8.644531 8.1875 8.675781 8.1875 C 8.738281 8.1875 8.800781 8.179688 8.863281 8.167969 C 8.933594 8.152344 9 8.132812 9.066406 8.105469 C 9.074219 8.101562 9.082031 8.101562 9.085938 8.09375 C 9.082031 8.089844 9.074219 8.085938 9.070312 8.082031 C 9.035156 8.0625 8.996094 8.050781 8.957031 8.039062 C 8.894531 8.019531 8.832031 8.011719 8.769531 8.019531 C 8.695312 8.03125 8.625 8.0625 8.566406 8.109375 C 8.558594 8.117188 8.554688 8.121094 8.546875 8.128906 C 8.539062 8.136719 8.535156 8.144531 8.535156 8.152344 Z M 9.195312 8.007812 L 9.199219 8.007812 C 9.203125 8.007812 9.203125 8.007812 9.207031 8.007812 C 9.207031 8.007812 9.210938 8.003906 9.214844 8 C 9.28125 7.914062 9.335938 7.824219 9.378906 7.726562 C 9.398438 7.683594 9.410156 7.640625 9.417969 7.59375 C 9.425781 7.570312 9.425781 7.542969 9.421875 7.519531 C 9.421875 7.507812 9.417969 7.5 9.410156 7.496094 C 9.40625 7.496094 9.402344 7.496094 9.398438 7.496094 C 9.382812 7.503906 9.371094 7.511719 9.359375 7.519531 C 9.292969 7.5625 9.238281 7.628906 9.210938 7.703125 C 9.179688 7.800781 9.171875 7.90625 9.199219 8.007812 Z M 9.640625 8.101562 L 9.644531 8.101562 C 9.636719 8.097656 9.625 8.09375 9.617188 8.089844 C 9.578125 8.082031 9.542969 8.082031 9.503906 8.085938 C 9.445312 8.097656 9.386719 8.113281 9.328125 8.140625 C 9.324219 8.140625 9.324219 8.144531 9.320312 8.148438 C 9.347656 8.191406 9.378906 8.234375 9.414062 8.273438 C 9.429688 8.265625 9.625 8.121094 9.644531 8.101562 Z M 9.125 8.488281 C 9.167969 8.457031 9.210938 8.429688 9.25 8.394531 C 9.25 8.390625 9.246094 8.390625 9.246094 8.386719 L 9.171875 8.289062 C 9.167969 8.285156 9.167969 8.285156 9.164062 8.28125 C 9.144531 8.3125 9.132812 8.34375 9.121094 8.378906 C 9.117188 8.394531 9.117188 8.410156 9.113281 8.425781 C 9.113281 8.445312 9.117188 8.46875 9.125 8.488281 Z M 9.125 8.488281 "/>
<path style=" stroke:none;fill-rule:nonzero;fill-opacity:1;" fill="#d41b58" d="M 8.710938 8.996094 C 8.894531 8.996094 9.078125 8.996094 9.257812 8.996094 L 9.261719 8.996094 C 9.265625 8.996094 9.265625 8.996094 9.269531 9 C 9.273438 9.035156 9.261719 9.074219 9.238281 9.105469 L 8.824219 9.105469 C 8.824219 9.113281 8.824219 9.117188 8.820312 9.121094 C 8.820312 9.128906 8.820312 9.136719 8.820312 9.144531 L 8.820312 10.292969 C 8.820312 10.304688 8.820312 10.316406 8.820312 10.328125 C 8.828125 10.328125 8.832031 10.332031 8.835938 10.332031 C 8.839844 10.332031 8.847656 10.332031 8.851562 10.332031 L 9.585938 10.332031 C 9.585938 10.324219 9.589844 10.320312 9.589844 10.316406 C 9.589844 10.3125 9.589844 10.304688 9.589844 10.296875 C 9.589844 9.914062 9.589844 9.527344 9.589844 9.144531 C 9.59375 9.132812 9.59375 9.121094 9.589844 9.109375 C 9.570312 9.105469 9.546875 9.109375 9.527344 9.105469 C 9.527344 9.089844 9.527344 9.070312 9.53125 9.054688 C 9.53125 9.039062 9.535156 9.019531 9.535156 9 L 9.539062 9 C 9.542969 9 9.546875 8.996094 9.550781 8.996094 C 9.558594 8.996094 9.5625 8.996094 9.570312 8.996094 L 10.621094 8.996094 C 10.632812 8.996094 10.640625 8.996094 10.652344 9 C 10.65625 9 10.65625 9.003906 10.65625 9.007812 C 10.65625 9.480469 10.65625 9.957031 10.65625 10.429688 C 10.65625 10.433594 10.65625 10.4375 10.652344 10.441406 C 10.648438 10.441406 10.640625 10.441406 10.636719 10.441406 L 8.742188 10.441406 L 8.746094 10.441406 C 8.734375 10.445312 8.722656 10.441406 8.714844 10.441406 C 8.710938 10.4375 8.710938 10.4375 8.710938 10.433594 C 8.710938 9.960938 8.710938 9.488281 8.710938 9.015625 C 8.710938 9.011719 8.710938 9.003906 8.710938 8.996094 Z M 9.792969 9.109375 L 9.792969 10.300781 C 9.792969 10.308594 9.792969 10.3125 9.792969 10.320312 L 9.792969 10.316406 C 9.792969 10.320312 9.792969 10.328125 9.796875 10.332031 L 10.53125 10.332031 C 10.535156 10.332031 10.539062 10.332031 10.542969 10.328125 C 10.546875 10.320312 10.546875 10.308594 10.546875 10.300781 L 10.546875 9.136719 C 10.546875 9.132812 10.546875 9.128906 10.546875 9.121094 C 10.542969 9.117188 10.542969 9.113281 10.542969 9.105469 L 9.8125 9.105469 C 9.808594 9.105469 9.804688 9.105469 9.792969 9.105469 Z M 9.792969 9.109375 "/>
<path style=" stroke:none;fill-rule:nonzero;fill-opacity:1;" fill="#d41b58" d="M 10.996094 7.917969 C 11.003906 7.972656 11.011719 8.027344 11.019531 8.078125 C 11.066406 8.085938 11.117188 8.089844 11.164062 8.101562 C 11.117188 8.113281 11.070312 8.113281 11.019531 8.125 C 11.007812 8.179688 11.003906 8.234375 10.996094 8.289062 C 10.988281 8.28125 10.984375 8.269531 10.984375 8.257812 C 10.980469 8.246094 10.980469 8.234375 10.980469 8.226562 C 10.980469 8.214844 10.976562 8.203125 10.976562 8.195312 C 10.976562 8.183594 10.972656 8.171875 10.972656 8.164062 C 10.972656 8.152344 10.96875 8.144531 10.96875 8.132812 L 10.96875 8.125 C 10.941406 8.121094 10.917969 8.117188 10.894531 8.113281 C 10.871094 8.109375 10.847656 8.105469 10.820312 8.105469 C 10.820312 8.101562 10.820312 8.101562 10.824219 8.101562 L 10.964844 8.082031 C 10.96875 8.070312 10.972656 8.0625 10.972656 8.050781 C 10.976562 8.011719 10.984375 7.96875 10.988281 7.929688 C 10.988281 7.925781 10.988281 7.921875 10.996094 7.917969 Z M 10.996094 7.917969 "/>
<path style=" stroke:none;fill-rule:nonzero;fill-opacity:1;" fill="#d41b58" d="M 10.683594 8.625 L 10.832031 8.644531 C 10.785156 8.65625 10.734375 8.660156 10.6875 8.667969 C 10.683594 8.671875 10.679688 8.679688 10.679688 8.6875 C 10.675781 8.726562 10.667969 8.769531 10.664062 8.808594 L 10.664062 8.8125 C 10.660156 8.820312 10.660156 8.824219 10.65625 8.832031 C 10.648438 8.777344 10.640625 8.722656 10.632812 8.671875 C 10.625 8.664062 10.613281 8.664062 10.605469 8.664062 L 10.507812 8.652344 C 10.5 8.652344 10.488281 8.648438 10.476562 8.648438 C 10.53125 8.636719 10.582031 8.636719 10.632812 8.625 C 10.644531 8.570312 10.648438 8.515625 10.660156 8.457031 L 10.65625 8.453125 C 10.664062 8.480469 10.667969 8.507812 10.671875 8.539062 C 10.675781 8.566406 10.675781 8.59375 10.683594 8.625 Z M 10.683594 8.625 "/>
<path style=" stroke:none;fill-rule:nonzero;fill-opacity:1;" fill="#d41b58" d="M 10.484375 8.058594 C 10.492188 8.054688 10.503906 8.050781 10.515625 8.050781 L 10.546875 8.046875 L 10.558594 7.972656 L 10.5625 7.972656 C 10.566406 7.984375 10.566406 7.996094 10.566406 8.007812 C 10.566406 8.019531 10.570312 8.03125 10.570312 8.042969 C 10.589844 8.050781 10.613281 8.046875 10.632812 8.058594 L 10.570312 8.066406 C 10.5625 8.089844 10.5625 8.117188 10.554688 8.144531 C 10.546875 8.117188 10.546875 8.09375 10.539062 8.070312 C 10.53125 8.0625 10.519531 8.066406 10.507812 8.0625 C 10.496094 8.058594 10.488281 8.058594 10.476562 8.058594 Z M 10.484375 8.058594 "/>
<path style=" stroke:none;fill-rule:nonzero;fill-opacity:1;" fill="#d41b58" d="M 9.628906 8.691406 L 9.621094 8.640625 C 9.617188 8.621094 9.617188 8.621094 9.597656 8.617188 C 9.582031 8.617188 9.570312 8.613281 9.554688 8.609375 L 9.601562 8.601562 C 9.617188 8.597656 9.621094 8.597656 9.621094 8.582031 C 9.625 8.566406 9.625 8.550781 9.628906 8.535156 L 9.628906 8.539062 C 9.628906 8.53125 9.628906 8.527344 9.632812 8.523438 C 9.640625 8.550781 9.640625 8.574219 9.648438 8.597656 C 9.667969 8.605469 9.691406 8.601562 9.714844 8.609375 L 9.664062 8.617188 C 9.652344 8.617188 9.648438 8.621094 9.648438 8.632812 C 9.648438 8.644531 9.644531 8.664062 9.640625 8.679688 L 9.636719 8.683594 C 9.636719 8.6875 9.636719 8.6875 9.632812 8.691406 Z M 9.628906 8.691406 "/>
<g style="fill-opacity:1;" fill="#1e1e1e">
  <use xlink:href="#glyph0-1" x="5.59375" y="11.816406"/>
</g>
<g style="fill-opacity:1;" fill="#1e1e1e">
  <use xlink:href="#glyph0-2" x="6.339844" y="11.816406"/>
</g>
<g style="fill-opacity:1;" fill="#1e1e1e">
  <use xlink:href="#glyph0-3" x="7.269531" y="11.816406"/>
</g>
<g style="fill-opacity:1;" fill="#1e1e1e">
  <use xlink:href="#glyph0-4" x="8.199219" y="11.816406"/>
</g>
<g style="fill-opacity:1;" fill="#1e1e1e">
  <use xlink:href="#glyph0-5" x="8.449219" y="11.816406"/>
</g>
<g style="fill-opacity:1;" fill="#1e1e1e">
  <use xlink:href="#glyph0-2" x="9.070312" y="11.816406"/>
</g>
<g style="fill-opacity:1;" fill="#1e1e1e">
  <use xlink:href="#glyph0-1" x="10" y="11.816406"/>
</g>
<g style="fill-opacity:1;" fill="#1e1e1e">
  <use xlink:href="#glyph0-6" x="10.46875" y="11.816406"/>
</g>
<g style="fill-opacity:1;" fill="#1e1e1e">
  <use xlink:href="#glyph0-7" x="11.054688" y="11.816406"/>
</g>
<g style="fill-opacity:1;" fill="#1e1e1e">
  <use xlink:href="#glyph0-8" x="11.675781" y="11.816406"/>
</g>
<g style="fill-opacity:1;" fill="#1e1e1e">
  <use xlink:href="#glyph0-4" x="11.988281" y="11.816406"/>
</g>
<g style="fill-opacity:1;" fill="#1e1e1e">
  <use xlink:href="#glyph0-9" x="12.234375" y="11.816406"/>
</g>
<g style="fill-opacity:1;" fill="#1e1e1e">
  <use xlink:href="#glyph0-7" x="12.769531" y="11.816406"/>
</g>
<g style="fill-opacity:1;" fill="#1e1e1e">
  <use xlink:href="#glyph0-2" x="13.3125" y="11.816406"/>
</g>
<path style=" stroke:none;fill-rule:nonzero;fill-opacity:1;" fill="#d41b58" d="M 9.285156 9.183594 C 9.289062 9.175781 9.292969 9.171875 9.296875 9.164062 C 9.308594 9.140625 9.320312 9.117188 9.332031 9.09375 C 9.355469 9.035156 9.355469 8.96875 9.332031 8.910156 C 9.320312 8.886719 9.308594 8.859375 9.292969 8.835938 C 9.273438 8.804688 9.25 8.777344 9.222656 8.75 C 9.191406 8.714844 9.15625 8.683594 9.121094 8.648438 L 9.125 8.652344 C 9.121094 8.648438 9.117188 8.644531 9.113281 8.644531 L 9.105469 8.644531 C 9.105469 8.644531 9.105469 8.644531 9.101562 8.644531 L 9.097656 8.648438 L 9.089844 8.652344 L 8.539062 9.0625 L 8.542969 9.058594 C 8.542969 9.058594 8.539062 9.0625 8.539062 9.0625 L 8.535156 9.0625 C 8.53125 9.0625 8.527344 9.058594 8.527344 9.054688 L 8.304688 8.757812 C 8.300781 8.753906 8.300781 8.75 8.296875 8.746094 C 8.300781 8.738281 8.308594 8.730469 8.316406 8.726562 L 8.730469 8.417969 L 8.910156 8.285156 C 8.917969 8.28125 8.925781 8.273438 8.929688 8.265625 C 8.921875 8.265625 8.917969 8.265625 8.910156 8.265625 C 8.871094 8.273438 8.832031 8.28125 8.792969 8.285156 L 8.792969 8.289062 C 8.730469 8.296875 8.664062 8.296875 8.601562 8.289062 C 8.566406 8.285156 8.535156 8.277344 8.507812 8.265625 C 8.492188 8.257812 8.476562 8.25 8.460938 8.238281 C 8.421875 8.203125 8.410156 8.144531 8.433594 8.097656 C 8.441406 8.082031 8.449219 8.070312 8.460938 8.054688 C 8.472656 8.042969 8.484375 8.027344 8.5 8.015625 C 8.574219 7.957031 8.664062 7.917969 8.761719 7.90625 C 8.84375 7.898438 8.929688 7.910156 9.007812 7.9375 C 9.023438 7.941406 9.042969 7.949219 9.058594 7.957031 C 9.0625 7.957031 9.066406 7.960938 9.074219 7.960938 C 9.074219 7.957031 9.074219 7.953125 9.078125 7.949219 C 9.078125 7.9375 9.078125 7.929688 9.074219 7.917969 C 9.066406 7.824219 9.078125 7.734375 9.113281 7.648438 C 9.152344 7.558594 9.214844 7.480469 9.296875 7.425781 C 9.320312 7.40625 9.351562 7.394531 9.382812 7.386719 C 9.441406 7.371094 9.5 7.402344 9.519531 7.460938 C 9.535156 7.496094 9.539062 7.53125 9.535156 7.566406 C 9.527344 7.640625 9.503906 7.714844 9.472656 7.78125 C 9.457031 7.816406 9.4375 7.855469 9.417969 7.890625 C 9.414062 7.894531 9.410156 7.902344 9.40625 7.910156 C 9.414062 7.910156 9.417969 7.90625 9.421875 7.902344 L 9.617188 7.757812 L 9.972656 7.492188 L 9.996094 7.472656 C 10.007812 7.476562 10.011719 7.484375 10.015625 7.492188 C 10.082031 7.582031 10.152344 7.675781 10.21875 7.765625 C 10.226562 7.773438 10.230469 7.78125 10.238281 7.789062 L 10.246094 7.789062 C 10.238281 7.796875 10.230469 7.804688 10.222656 7.808594 L 9.84375 8.089844 L 9.84375 8.09375 C 9.835938 8.097656 9.828125 8.105469 9.824219 8.113281 C 9.839844 8.144531 9.855469 8.175781 9.867188 8.210938 C 9.875 8.246094 9.882812 8.28125 9.894531 8.320312 C 9.9375 8.316406 9.976562 8.308594 10.019531 8.304688 C 10.0625 8.300781 10.101562 8.296875 10.144531 8.289062 C 10.160156 8.199219 10.167969 8.113281 10.183594 8.019531 L 10.179688 8.019531 C 10.183594 8.027344 10.1875 8.035156 10.1875 8.042969 C 10.199219 8.117188 10.207031 8.191406 10.21875 8.269531 C 10.21875 8.273438 10.21875 8.277344 10.21875 8.28125 C 10.21875 8.292969 10.222656 8.292969 10.234375 8.296875 C 10.246094 8.296875 10.257812 8.300781 10.273438 8.300781 L 10.449219 8.324219 C 10.453125 8.324219 10.460938 8.324219 10.464844 8.332031 C 10.425781 8.335938 10.386719 8.34375 10.34375 8.347656 C 10.304688 8.351562 10.261719 8.355469 10.222656 8.363281 C 10.214844 8.410156 10.210938 8.453125 10.203125 8.496094 C 10.195312 8.539062 10.191406 8.585938 10.183594 8.628906 C 10.167969 8.542969 10.15625 8.453125 10.144531 8.363281 C 10.136719 8.363281 10.128906 8.359375 10.121094 8.359375 C 10.046875 8.351562 9.972656 8.339844 9.894531 8.332031 L 9.890625 8.324219 C 9.890625 8.332031 9.890625 8.335938 9.890625 8.339844 C 9.894531 8.382812 9.894531 8.425781 9.898438 8.464844 L 9.898438 8.46875 C 9.902344 8.519531 9.914062 8.570312 9.933594 8.621094 C 9.941406 8.640625 9.953125 8.660156 9.964844 8.679688 C 10 8.730469 10.058594 8.757812 10.121094 8.746094 C 10.164062 8.738281 10.207031 8.722656 10.246094 8.703125 L 10.269531 8.691406 C 10.292969 8.71875 10.3125 8.746094 10.328125 8.78125 C 10.324219 8.785156 10.320312 8.785156 10.316406 8.789062 C 10.257812 8.828125 10.191406 8.847656 10.121094 8.855469 C 10.03125 8.867188 9.941406 8.832031 9.886719 8.757812 C 9.855469 8.714844 9.828125 8.667969 9.816406 8.617188 C 9.800781 8.570312 9.792969 8.519531 9.789062 8.46875 C 9.785156 8.425781 9.785156 8.382812 9.78125 8.34375 L 9.777344 8.34375 C 9.777344 8.300781 9.765625 8.253906 9.75 8.214844 C 9.746094 8.203125 9.738281 8.191406 9.734375 8.179688 C 9.722656 8.179688 9.71875 8.1875 9.710938 8.191406 L 9.46875 8.371094 L 9.226562 8.554688 C 9.21875 8.558594 9.214844 8.566406 9.207031 8.570312 C 9.210938 8.578125 9.21875 8.582031 9.222656 8.585938 C 9.246094 8.605469 9.265625 8.628906 9.289062 8.648438 L 9.28125 8.652344 C 9.324219 8.691406 9.359375 8.734375 9.390625 8.785156 C 9.417969 8.824219 9.433594 8.867188 9.449219 8.910156 C 9.464844 8.976562 9.464844 9.046875 9.441406 9.113281 C 9.425781 9.15625 9.40625 9.195312 9.382812 9.234375 C 9.378906 9.238281 9.378906 9.242188 9.375 9.246094 C 9.34375 9.226562 9.316406 9.203125 9.289062 9.183594 Z M 8.558594 8.910156 C 8.5625 8.90625 8.566406 8.90625 8.574219 8.902344 C 8.589844 8.890625 8.605469 8.878906 8.617188 8.867188 L 9.011719 8.574219 C 9.019531 8.570312 9.027344 8.566406 9.03125 8.554688 L 9.027344 8.546875 C 9.015625 8.515625 9.007812 8.488281 9.003906 8.457031 C 9.003906 8.429688 9.003906 8.402344 9.007812 8.378906 C 9.007812 8.371094 9.011719 8.363281 9.007812 8.355469 C 9 8.359375 8.992188 8.363281 8.984375 8.367188 L 8.691406 8.585938 L 8.46875 8.753906 C 8.460938 8.757812 8.453125 8.761719 8.453125 8.769531 C 8.46875 8.796875 8.542969 8.894531 8.558594 8.910156 Z M 9.984375 7.628906 C 9.976562 7.632812 9.96875 7.636719 9.960938 7.644531 L 9.671875 7.859375 L 9.535156 7.960938 C 9.53125 7.964844 9.523438 7.964844 9.527344 7.976562 C 9.550781 7.976562 9.578125 7.976562 9.601562 7.980469 L 9.601562 7.976562 C 9.625 7.980469 9.652344 7.984375 9.675781 7.996094 C 9.699219 8.003906 9.722656 8.015625 9.746094 8.027344 C 9.75 8.027344 9.753906 8.023438 9.757812 8.019531 C 9.867188 7.941406 9.972656 7.859375 10.078125 7.78125 C 10.082031 7.777344 10.085938 7.773438 10.089844 7.769531 C 10.054688 7.722656 10.019531 7.675781 9.984375 7.628906 Z M 8.53125 8.152344 L 8.535156 8.152344 C 8.539062 8.160156 8.546875 8.164062 8.554688 8.164062 C 8.566406 8.171875 8.578125 8.175781 8.589844 8.175781 C 8.617188 8.183594 8.644531 8.1875 8.675781 8.1875 C 8.738281 8.1875 8.800781 8.179688 8.863281 8.167969 C 8.933594 8.152344 9 8.132812 9.066406 8.105469 C 9.074219 8.101562 9.082031 8.101562 9.085938 8.09375 C 9.082031 8.089844 9.074219 8.085938 9.070312 8.082031 C 9.035156 8.0625 8.996094 8.050781 8.957031 8.039062 C 8.894531 8.019531 8.832031 8.011719 8.769531 8.019531 C 8.695312 8.03125 8.625 8.0625 8.566406 8.109375 C 8.558594 8.117188 8.554688 8.121094 8.546875 8.128906 C 8.539062 8.136719 8.535156 8.144531 8.535156 8.152344 Z M 9.195312 8.007812 L 9.199219 8.007812 C 9.203125 8.007812 9.203125 8.007812 9.207031 8.007812 C 9.207031 8.007812 9.210938 8.003906 9.214844 8 C 9.28125 7.914062 9.335938 7.824219 9.378906 7.726562 C 9.398438 7.683594 9.410156 7.640625 9.417969 7.59375 C 9.425781 7.570312 9.425781 7.542969 9.421875 7.519531 C 9.421875 7.507812 9.417969 7.5 9.410156 7.496094 C 9.40625 7.496094 9.402344 7.496094 9.398438 7.496094 C 9.382812 7.503906 9.371094 7.511719 9.359375 7.519531 C 9.292969 7.5625 9.238281 7.628906 9.210938 7.703125 C 9.179688 7.800781 9.171875 7.90625 9.199219 8.007812 Z M 9.640625 8.101562 L 9.644531 8.101562 C 9.636719 8.097656 9.625 8.09375 9.617188 8.089844 C 9.578125 8.082031 9.542969 8.082031 9.503906 8.085938 C 9.445312 8.097656 9.386719 8.113281 9.328125 8.140625 C 9.324219 8.140625 9.324219 8.144531 9.320312 8.148438 C 9.347656 8.191406 9.378906 8.234375 9.414062 8.273438 C 9.429688 8.265625 9.625 8.121094 9.644531 8.101562 Z M 9.125 8.488281 C 9.167969 8.457031 9.210938 8.429688 9.25 8.394531 C 9.25 8.390625 9.246094 8.390625 9.246094 8.386719 L 9.171875 8.289062 C 9.167969 8.285156 9.167969 8.285156 9.164062 8.28125 C 9.144531 8.3125 9.132812 8.34375 9.121094 8.378906 C 9.117188 8.394531 9.117188 8.410156 9.113281 8.425781 C 9.113281 8.445312 9.117188 8.46875 9.125 8.488281 Z M 9.125 8.488281 "/>
<path style=" stroke:none;fill-rule:nonzero;fill-opacity:1;" fill="#d41b58" d="M 8.710938 8.996094 C 8.894531 8.996094 9.078125 8.996094 9.257812 8.996094 L 9.261719 8.996094 C 9.265625 8.996094 9.265625 8.996094 9.269531 9 C 9.273438 9.035156 9.261719 9.074219 9.238281 9.105469 L 8.824219 9.105469 C 8.824219 9.113281 8.824219 9.117188 8.820312 9.121094 C 8.820312 9.128906 8.820312 9.136719 8.820312 9.144531 L 8.820312 10.292969 C 8.820312 10.304688 8.820312 10.316406 8.820312 10.328125 C 8.828125 10.328125 8.832031 10.332031 8.835938 10.332031 C 8.839844 10.332031 8.847656 10.332031 8.851562 10.332031 L 9.585938 10.332031 C 9.585938 10.324219 9.589844 10.320312 9.589844 10.316406 C 9.589844 10.3125 9.589844 10.304688 9.589844 10.296875 C 9.589844 9.914062 9.589844 9.527344 9.589844 9.144531 C 9.59375 9.132812 9.59375 9.121094 9.589844 9.109375 C 9.570312 9.105469 9.546875 9.109375 9.527344 9.105469 C 9.527344 9.089844 9.527344 9.070312 9.53125 9.054688 C 9.53125 9.039062 9.535156 9.019531 9.535156 9 L 9.539062 9 C 9.542969 9 9.546875 8.996094 9.550781 8.996094 C 9.558594 8.996094 9.5625 8.996094 9.570312 8.996094 L 10.621094 8.996094 C 10.632812 8.996094 10.640625 8.996094 10.652344 9 C 10.65625 9 10.65625 9.003906 10.65625 9.007812 C 10.65625 9.480469 10.65625 9.957031 10.65625 10.429688 C 10.65625 10.433594 10.65625 10.4375 10.652344 10.441406 C 10.648438 10.441406 10.640625 10.441406 10.636719 10.441406 L 8.742188 10.441406 L 8.746094 10.441406 C 8.734375 10.445312 8.722656 10.441406 8.714844 10.441406 C 8.710938 10.4375 8.710938 10.4375 8.710938 10.433594 C 8.710938 9.960938 8.710938 9.488281 8.710938 9.015625 C 8.710938 9.011719 8.710938 9.003906 8.710938 8.996094 Z M 9.792969 9.109375 L 9.792969 10.300781 C 9.792969 10.308594 9.792969 10.3125 9.792969 10.320312 L 9.792969 10.316406 C 9.792969 10.320312 9.792969 10.328125 9.796875 10.332031 L 10.53125 10.332031 C 10.535156 10.332031 10.539062 10.332031 10.542969 10.328125 C 10.546875 10.320312 10.546875 10.308594 10.546875 10.300781 L 10.546875 9.136719 C 10.546875 9.132812 10.546875 9.128906 10.546875 9.121094 C 10.542969 9.117188 10.542969 9.113281 10.542969 9.105469 L 9.8125 9.105469 C 9.808594 9.105469 9.804688 9.105469 9.792969 9.105469 Z M 9.792969 9.109375 "/>
<path style=" stroke:none;fill-rule:nonzero;fill-opacity:1;" fill="#d41b58" d="M 10.996094 7.917969 C 11.003906 7.972656 11.011719 8.027344 11.019531 8.078125 C 11.066406 8.085938 11.117188 8.089844 11.164062 8.101562 C 11.117188 8.113281 11.070312 8.113281 11.019531 8.125 C 11.007812 8.179688 11.003906 8.234375 10.996094 8.289062 C 10.988281 8.28125 10.984375 8.269531 10.984375 8.257812 C 10.980469 8.246094 10.980469 8.234375 10.980469 8.226562 C 10.980469 8.214844 10.976562 8.203125 10.976562 8.195312 C 10.976562 8.183594 10.972656 8.171875 10.972656 8.164062 C 10.972656 8.152344 10.96875 8.144531 10.96875 8.132812 L 10.96875 8.125 C 10.941406 8.121094 10.917969 8.117188 10.894531 8.113281 C 10.871094 8.109375 10.847656 8.105469 10.820312 8.105469 C 10.820312 8.101562 10.820312 8.101562 10.824219 8.101562 L 10.964844 8.082031 C 10.96875 8.070312 10.972656 8.0625 10.972656 8.050781 C 10.976562 8.011719 10.984375 7.96875 10.988281 7.929688 C 10.988281 7.925781 10.988281 7.921875 10.996094 7.917969 Z M 10.996094 7.917969 "/>
<path style=" stroke:none;fill-rule:nonzero;fill-opacity:1;" fill="#d41b58" d="M 10.683594 8.625 L 10.832031 8.644531 C 10.785156 8.65625 10.734375 8.660156 10.6875 8.667969 C 10.683594 8.671875 10.679688 8.679688 10.679688 8.6875 C 10.675781 8.726562 10.667969 8.769531 10.664062 8.808594 L 10.664062 8.8125 C 10.660156 8.820312 10.660156 8.824219 10.65625 8.832031 C 10.648438 8.777344 10.640625 8.722656 10.632812 8.671875 C 10.625 8.664062 10.613281 8.664062 10.605469 8.664062 L 10.507812 8.652344 C 10.5 8.652344 10.488281 8.648438 10.476562 8.648438 C 10.53125 8.636719 10.582031 8.636719 10.632812 8.625 C 10.644531 8.570312 10.648438 8.515625 10.660156 8.457031 L 10.65625 8.453125 C 10.664062 8.480469 10.667969 8.507812 10.671875 8.539062 C 10.675781 8.566406 10.675781 8.59375 10.683594 8.625 Z M 10.683594 8.625 "/>
<path style=" stroke:none;fill-rule:nonzero;fill-opacity:1;" fill="#d41b58" d="M 10.484375 8.058594 C 10.492188 8.054688 10.503906 8.050781 10.515625 8.050781 L 10.546875 8.046875 L 10.558594 7.972656 L 10.5625 7.972656 C 10.566406 7.984375 10.566406 7.996094 10.566406 8.007812 C 10.566406 8.019531 10.570312 8.03125 10.570312 8.042969 C 10.589844 8.050781 10.613281 8.046875 10.632812 8.058594 L 10.570312 8.066406 C 10.5625 8.089844 10.5625 8.117188 10.554688 8.144531 C 10.546875 8.117188 10.546875 8.09375 10.539062 8.070312 C 10.53125 8.0625 10.519531 8.066406 10.507812 8.0625 C 10.496094 8.058594 10.488281 8.058594 10.476562 8.058594 Z M 10.484375 8.058594 "/>
<path style=" stroke:none;fill-rule:nonzero;fill-opacity:1;" fill="#d41b58" d="M 9.628906 8.691406 L 9.621094 8.640625 C 9.617188 8.621094 9.617188 8.621094 9.597656 8.617188 C 9.582031 8.617188 9.570312 8.613281 9.554688 8.609375 L 9.601562 8.601562 C 9.617188 8.597656 9.621094 8.597656 9.621094 8.582031 C 9.625 8.566406 9.625 8.550781 9.628906 8.535156 L 9.628906 8.539062 C 9.628906 8.53125 9.628906 8.527344 9.632812 8.523438 C 9.640625 8.550781 9.640625 8.574219 9.648438 8.597656 C 9.667969 8.605469 9.691406 8.601562 9.714844 8.609375 L 9.664062 8.617188 C 9.652344 8.617188 9.648438 8.621094 9.648438 8.632812 C 9.648438 8.644531 9.644531 8.664062 9.640625 8.679688 L 9.636719 8.683594 C 9.636719 8.6875 9.636719 8.6875 9.632812 8.691406 Z M 9.628906 8.691406 "/>
</g>
</svg>
