<svg id="Layer_1" data-name="Layer 1" xmlns="http://www.w3.org/2000/svg" viewBox="0 0 841.89 595.28"><defs><style>.cls-1{font-size:48.32px;fill:#1e1e1e;font-family:GalapagosDemo, Galapagos;}.cls-2{letter-spacing:0.03em;}.cls-3{letter-spacing:-0.01em;}.cls-4{letter-spacing:0em;}.cls-5{fill:#d41c58;}</style></defs><text class="cls-1" transform="translate(241.96 387.84)">Be Mine B<tspan class="cls-2" x="211" y="0">o</tspan><tspan x="236.32" y="0">utiq</tspan><tspan class="cls-3" x="310.48" y="0">u</tspan><tspan class="cls-4" x="333.87" y="0">e</tspan></text><path class="cls-5" d="M401.69,273.85c.18-.3.3-.56.46-.79a17.08,17.08,0,0,0,1.54-3,10.58,10.58,0,0,0,0-7.9,17.14,17.14,0,0,0-1.73-3.28,25.21,25.21,0,0,0-2.94-3.66c-1.42-1.47-2.89-2.88-4.34-4.32a5.76,5.76,0,0,0-.45-.37H394l-.1,0a.31.31,0,0,0-.1,0l-.18.12-.26.2-23.76,17.7a2,2,0,0,1-.19.12l-.15.08a4.36,4.36,0,0,1-.43-.43l-9.61-12.89c-.1-.15-.19-.31-.28-.45a2.51,2.51,0,0,1,.9-.82l17.88-13.33,7.72-5.75a2.51,2.51,0,0,0,.85-.82,6.21,6.21,0,0,0-.82,0c-1.68.3-3.36.66-5.05.9a29.85,29.85,0,0,1-8.39.13,14.31,14.31,0,0,1-4-1.09,7.78,7.78,0,0,1-1.93-1.22,4.87,4.87,0,0,1-1.29-6,8.7,8.7,0,0,1,1.19-1.83,12.34,12.34,0,0,1,1.71-1.68,21.75,21.75,0,0,1,11.32-4.77A24.73,24.73,0,0,1,389.72,220c.73.24,1.44.53,2.15.79.2.08.4.14.69.23a2.67,2.67,0,0,0,.08-.56c0-.44-.08-.87-.11-1.31a25.15,25.15,0,0,1,1.73-11.67,21.54,21.54,0,0,1,7.86-9.59,10.44,10.44,0,0,1,3.76-1.71,5,5,0,0,1,6,3.19,10.11,10.11,0,0,1,.55,4.63,28.76,28.76,0,0,1-2.62,9.31c-.72,1.6-1.57,3.13-2.36,4.69-.12.25-.26.5-.44.83.38.06.54-.16.72-.3l8.51-6.33,15.43-11.5,1.07-.77c.44.14.6.54.83.84q4.43,5.91,8.83,11.84c.26.34.51.69.78,1.06a3.43,3.43,0,0,1-.94.82l-16.39,12.22a2.82,2.82,0,0,0-.92.85,18.88,18.88,0,0,1,1.89,4.37c.39,1.55.73,3.11,1.1,4.73,1.81-.17,3.6-.44,5.39-.67s3.61-.4,5.45-.74c.61-3.86,1.07-7.68,1.69-11.72a9.6,9.6,0,0,1,.26,1q.69,4.88,1.36,9.74c0,.15,0,.29,0,.44.08.44.2.56.63.63s1.08.14,1.62.21l7.6.95c.23,0,.52,0,.69.3-1.74.23-3.46.47-5.18.68s-3.47.42-5.24.69c-.35,2-.56,3.88-.84,5.78s-.5,3.81-.91,5.7c-.68-3.8-1.11-7.61-1.73-11.43-.36-.08-.68-.17-1-.21-3.25-.37-6.48-.88-9.8-1.2a3.82,3.82,0,0,0-.07.69c.12,1.82.23,3.64.41,5.45a25,25,0,0,0,1.5,6.59,12.19,12.19,0,0,0,1.37,2.6A6.49,6.49,0,0,0,437.8,255a16.07,16.07,0,0,0,5.53-1.93l.94-.5a24.61,24.61,0,0,1,2.6,3.89,6.71,6.71,0,0,1-.58.43,20.26,20.26,0,0,1-8.4,2.9,11,11,0,0,1-10.23-4.26,17.62,17.62,0,0,1-3-6.15,32.32,32.32,0,0,1-1.19-6.32c-.15-1.82-.25-3.64-.42-5.45a19.42,19.42,0,0,0-1.31-5.62c-.21-.5-.46-1-.68-1.44-.51-.06-.74.27-1,.48l-10.52,7.84L399,246.74c-.28.21-.55.45-.88.71.24.27.43.48.63.68.94.92,1.9,1.81,2.82,2.75a35.5,35.5,0,0,1,4.68,5.76,19.48,19.48,0,0,1,2.46,5.46,15.27,15.27,0,0,1-.25,8.83,21,21,0,0,1-2.58,5.16c-.1.15-.23.27-.39.46C404.2,275.66,403,274.77,401.69,273.85ZM370.28,262.1c.2-.13.42-.25.62-.4.65-.47,1.29-1,1.93-1.44l17.08-12.73c.31-.24.7-.4.85-.82l-.18-.41a10.41,10.41,0,0,1-1.08-3.87,14.11,14.11,0,0,1,.2-3.37c.05-.3.21-.61,0-1a3,3,0,0,0-1,.63l-12.62,9.4-9.63,7.19c-.28.2-.66.33-.74.74C366.41,257.18,369.66,261.49,370.28,262.1ZM432,206.7a2.15,2.15,0,0,0-1.11.61l-12.53,9.34L412.52,221c-.18.14-.49.21-.42.6,1.07,0,2.15,0,3.22.13a10.68,10.68,0,0,1,3.29.78c1,.42,2,.92,3,1.4a3.59,3.59,0,0,0,.44-.28q7-5.19,13.94-10.39a5.38,5.38,0,0,0,.49-.48Q434.17,209.64,432,206.7Zm-62.79,22.69a5.46,5.46,0,0,0,.82.5,10.08,10.08,0,0,0,1.55.52,16.29,16.29,0,0,0,3.68.42,38.11,38.11,0,0,0,8.24-.91,57.38,57.38,0,0,0,8.78-2.59c.28-.11.66-.11.82-.54-.24-.15-.47-.31-.71-.45a26.25,26.25,0,0,0-4.95-2,19.4,19.4,0,0,0-8.09-.76,17.26,17.26,0,0,0-8.76,3.88,7.5,7.5,0,0,0-.85.84A1.69,1.69,0,0,0,369.16,229.39Zm28.77-6.29a1.5,1.5,0,0,0,.24,0,3.41,3.41,0,0,0,.38-.38,54.86,54.86,0,0,0,7.09-11.87,26.71,26.71,0,0,0,1.78-5.72,9.65,9.65,0,0,0,.14-3.26,1.27,1.27,0,0,0-.47-1,2.14,2.14,0,0,0-.59.12,13,13,0,0,0-1.73.92,16.59,16.59,0,0,0-6.3,8A23.17,23.17,0,0,0,397.93,223.1Zm19.2,4a3.39,3.39,0,0,0-1.2-.46,12.81,12.81,0,0,0-4.78-.13,28.15,28.15,0,0,0-7.62,2.28,3.83,3.83,0,0,0-.42.28,55.67,55.67,0,0,0,4.06,5.46C407.94,234.14,416.36,227.87,417.13,227.11Zm-22.37,16.67a44.33,44.33,0,0,0,5.3-4,1,1,0,0,0-.11-.28l-3.2-4.29a1.9,1.9,0,0,0-.35-.24,14.25,14.25,0,0,0-1.81,4.13,10.93,10.93,0,0,0-.32,2.05A4.59,4.59,0,0,0,394.76,243.78Z"/><path class="cls-5" d="M376.91,265.82c8,0,15.85,0,23.71,0a1.67,1.67,0,0,1,.4.08,6.83,6.83,0,0,1-1.33,4.7H381.77a5.33,5.33,0,0,0-.15.65c0,.33,0,.66,0,1V322c0,.47,0,.94,0,1.45.27.05.47.11.68.13s.51,0,.76,0h30.4l1.35,0c.05-.26.11-.46.13-.67s0-.58,0-.87q0-24.93,0-49.86a6.08,6.08,0,0,0-.07-1.46c-.91-.22-1.83,0-2.74-.17a10,10,0,0,1,.24-2.27c0-.76.13-1.52.21-2.33a4.69,4.69,0,0,1,.62-.1c.3,0,.59,0,.88,0h45.38a4.7,4.7,0,0,1,1.4.08,1.47,1.47,0,0,1,.11.34q0,30.78,0,61.56a4,4,0,0,1-.08.48c-.23,0-.43.07-.64.08h-81.9a5.36,5.36,0,0,1-1.39-.07,1.05,1.05,0,0,1-.13-.34q0-30.68,0-61.34C376.83,266.39,376.87,266.18,376.91,265.82Zm46.73,4.86v51.47c0,.26,0,.52,0,.77a5.91,5.91,0,0,0,.15.66h31.73a2.84,2.84,0,0,0,.52-.07,2.3,2.3,0,0,0,.17-1.31V271.92a4.68,4.68,0,0,0,0-.65,4.44,4.44,0,0,0-.16-.66H424.42C424.21,270.61,424,270.65,423.64,270.68Z"/><path class="cls-5" d="M475.64,219.14c.42,2.32.61,4.67,1.06,7,2.09.38,4.17.53,6.22,1-2,.48-4.13.59-6.22,1-.44,2.34-.65,4.68-1.07,7.14a2.86,2.86,0,0,1-.36-1.47c-.09-.46-.14-.94-.2-1.4s-.14-.94-.2-1.41-.13-.94-.21-1.41-.15-.92-.23-1.42a23.08,23.08,0,0,0-3.15-.48c-1-.15-2.07-.28-3.13-.42.06-.11.08-.21.12-.22l6.06-.82a4.17,4.17,0,0,0,.31-1.3c.25-1.76.48-3.53.73-5.3C475.39,219.43,475.37,219.23,475.64,219.14Z"/><path class="cls-5" d="M462.2,249.71l6.45.85c-2.11.52-4.25.66-6.33,1a1.47,1.47,0,0,0-.34.94q-.36,2.66-.73,5.31a2.26,2.26,0,0,1-.32.91c-.34-2.33-.67-4.67-1-7a2.46,2.46,0,0,0-1.19-.33l-4.23-.52c-.4,0-.78-.14-1.42-.25,2.4-.44,4.58-.56,6.78-1,.46-2.38.65-4.78,1.11-7.31a29,29,0,0,1,.63,3.7C461.82,247.24,461.86,248.44,462.2,249.71Z"/><path class="cls-5" d="M453.49,225.27a3.82,3.82,0,0,1,1.38-.31l1.35-.21.52-3.23h.14c.09.53.17,1,.25,1.58s.15,1,.24,1.56c.83.42,1.81.18,2.77.61l-2.69.42c-.36,1.09-.31,2.21-.62,3.37-.39-1.12-.3-2.24-.63-3.28-.4-.31-.9-.19-1.35-.28S454,225.36,453.49,225.27Z"/><path class="cls-5" d="M416.56,252.58l-.3-2.15c-.12-.89-.14-.9-1.08-1a9.28,9.28,0,0,1-1.83-.37l2-.28c.72-.09.8-.17.89-.85s.17-1.3.27-1.95a5,5,0,0,1,.17-.6c.37,1.17.32,2.19.61,3.19.85.39,1.85.19,2.85.59l-2.24.3c-.56.08-.67.18-.75.75s-.19,1.36-.28,2.05a2.59,2.59,0,0,1-.11.37Z"/></svg>